# Tiled2Unity generated file. Do not modify by hand.
# Wavefront file for 'Mapa-Boss-Acto-1_mesh_0001.obj'

# Vertices (Count = 336)
v -8 -2 0
v -9 -2 0
v -9 -1 0
v -8 -1 0
v -9 -2 0
v -10 -2 0
v -10 -1 0
v -9 -1 0
v -10 -2 0
v -11 -2 0
v -11 -1 0
v -10 -1 0
v -8 -3 0
v -9 -3 0
v -9 -2 0
v -8 -2 0
v -9 -3 0
v -10 -3 0
v -10 -2 0
v -9 -2 0
v -10 -3 0
v -11 -3 0
v -11 -2 0
v -10 -2 0
v -8 -4 0
v -9 -4 0
v -9 -3 0
v -8 -3 0
v -9 -4 0
v -10 -4 0
v -10 -3 0
v -9 -3 0
v -10 -4 0
v -11 -4 0
v -11 -3 0
v -10 -3 0
v -2 -5 0
v -3 -5 0
v -3 -4 0
v -2 -4 0
v -3 -5 0
v -4 -5 0
v -4 -4 0
v -3 -4 0
v -8 -5 0
v -9 -5 0
v -9 -4 0
v -8 -4 0
v -9 -5 0
v -10 -5 0
v -10 -4 0
v -9 -4 0
v -10 -5 0
v -11 -5 0
v -11 -4 0
v -10 -4 0
v -8 -6 0
v -9 -6 0
v -9 -5 0
v -8 -5 0
v -9 -6 0
v -10 -6 0
v -10 -5 0
v -9 -5 0
v -10 -6 0
v -11 -6 0
v -11 -5 0
v -10 -5 0
v -8 -7 0
v -9 -7 0
v -9 -6 0
v -8 -6 0
v -9 -7 0
v -10 -7 0
v -10 -6 0
v -9 -6 0
v -10 -7 0
v -11 -7 0
v -11 -6 0
v -10 -6 0
v -8 -9 0
v -9 -9 0
v -9 -8 0
v -8 -8 0
v -9 -9 0
v -10 -9 0
v -10 -8 0
v -9 -8 0
v -10 -9 0
v -11 -9 0
v -11 -8 0
v -10 -8 0
v -8 -10 0
v -9 -10 0
v -9 -9 0
v -8 -9 0
v -9 -10 0
v -10 -10 0
v -10 -9 0
v -9 -9 0
v -10 -10 0
v -11 -10 0
v -11 -9 0
v -10 -9 0
v -8 -11 0
v -9 -11 0
v -9 -10 0
v -8 -10 0
v -9 -11 0
v -10 -11 0
v -10 -10 0
v -9 -10 0
v -10 -11 0
v -11 -11 0
v -11 -10 0
v -10 -10 0
v -8 -12 0
v -9 -12 0
v -9 -11 0
v -8 -11 0
v -9 -12 0
v -10 -12 0
v -10 -11 0
v -9 -11 0
v -10 -12 0
v -11 -12 0
v -11 -11 0
v -10 -11 0
v -8 -13 0
v -9 -13 0
v -9 -12 0
v -8 -12 0
v -9 -13 0
v -10 -13 0
v -10 -12 0
v -9 -12 0
v -10 -13 0
v -11 -13 0
v -11 -12 0
v -10 -12 0
v -8 -15 0
v -9 -15 0
v -9 -14 0
v -8 -14 0
v -9 -15 0
v -10 -15 0
v -10 -14 0
v -9 -14 0
v -10 -15 0
v -11 -15 0
v -11 -14 0
v -10 -14 0
v -8 -16 0
v -9 -16 0
v -9 -15 0
v -8 -15 0
v -9 -16 0
v -10 -16 0
v -10 -15 0
v -9 -15 0
v -10 -16 0
v -11 -16 0
v -11 -15 0
v -10 -15 0
v -24 -16 0
v -25 -16 0
v -25 -15 0
v -24 -15 0
v -8 -17 0
v -9 -17 0
v -9 -16 0
v -8 -16 0
v -9 -17 0
v -10 -17 0
v -10 -16 0
v -9 -16 0
v -10 -17 0
v -11 -17 0
v -11 -16 0
v -10 -16 0
v -23 -17 0
v -24 -17 0
v -24 -16 0
v -23 -16 0
v -2 -18 0
v -3 -18 0
v -3 -17 0
v -2 -17 0
v -3 -18 0
v -4 -18 0
v -4 -17 0
v -3 -17 0
v -4 -18 0
v -5 -18 0
v -5 -17 0
v -4 -17 0
v -5 -18 0
v -6 -18 0
v -6 -17 0
v -5 -17 0
v -6 -18 0
v -7 -18 0
v -7 -17 0
v -6 -17 0
v -7 -18 0
v -8 -18 0
v -8 -17 0
v -7 -17 0
v -8 -18 0
v -9 -18 0
v -9 -17 0
v -8 -17 0
v -9 -18 0
v -10 -18 0
v -10 -17 0
v -9 -17 0
v -10 -18 0
v -11 -18 0
v -11 -17 0
v -10 -17 0
v -11 -18 0
v -12 -18 0
v -12 -17 0
v -11 -17 0
v -12 -18 0
v -13 -18 0
v -13 -17 0
v -12 -17 0
v -13 -18 0
v -14 -18 0
v -14 -17 0
v -13 -17 0
v -14 -18 0
v -15 -18 0
v -15 -17 0
v -14 -17 0
v -15 -18 0
v -16 -18 0
v -16 -17 0
v -15 -17 0
v -16 -18 0
v -17 -18 0
v -17 -17 0
v -16 -17 0
v -17 -18 0
v -18 -18 0
v -18 -17 0
v -17 -17 0
v -18 -18 0
v -19 -18 0
v -19 -17 0
v -18 -17 0
v -19 -18 0
v -20 -18 0
v -20 -17 0
v -19 -17 0
v -20 -18 0
v -21 -18 0
v -21 -17 0
v -20 -17 0
v -21 -18 0
v -22 -18 0
v -22 -17 0
v -21 -17 0
v -2 -19 0
v -3 -19 0
v -3 -18 0
v -2 -18 0
v -3 -19 0
v -4 -19 0
v -4 -18 0
v -3 -18 0
v -4 -19 0
v -5 -19 0
v -5 -18 0
v -4 -18 0
v -5 -19 0
v -6 -19 0
v -6 -18 0
v -5 -18 0
v -6 -19 0
v -7 -19 0
v -7 -18 0
v -6 -18 0
v -7 -19 0
v -8 -19 0
v -8 -18 0
v -7 -18 0
v -8 -19 0
v -9 -19 0
v -9 -18 0
v -8 -18 0
v -9 -19 0
v -10 -19 0
v -10 -18 0
v -9 -18 0
v -10 -19 0
v -11 -19 0
v -11 -18 0
v -10 -18 0
v -11 -19 0
v -12 -19 0
v -12 -18 0
v -11 -18 0
v -12 -19 0
v -13 -19 0
v -13 -18 0
v -12 -18 0
v -13 -19 0
v -14 -19 0
v -14 -18 0
v -13 -18 0
v -14 -19 0
v -15 -19 0
v -15 -18 0
v -14 -18 0
v -15 -19 0
v -16 -19 0
v -16 -18 0
v -15 -18 0
v -16 -19 0
v -17 -19 0
v -17 -18 0
v -16 -18 0
v -17 -19 0
v -18 -19 0
v -18 -18 0
v -17 -18 0
v -18 -19 0
v -19 -19 0
v -19 -18 0
v -18 -18 0
v -19 -19 0
v -20 -19 0
v -20 -18 0
v -19 -18 0

# Texture cooridinates (Count = 20)
vt 0.8341463 0.723127
vt 0.9121951 0.723127
vt 0.9121951 0.7752443
vt 0.8341463 0.7752443
vt 0.8341463 0.6123779
vt 0.9121951 0.6123779
vt 0.9121951 0.6644951
vt 0.8341463 0.6644951
vt 0.9170732 0.6123779
vt 0.995122 0.6123779
vt 0.995122 0.6644951
vt 0.9170732 0.6644951
vt 0.8341463 0.6677524
vt 0.9121951 0.6677524
vt 0.9121951 0.7198697
vt 0.8341463 0.7198697
vt 0.9170732 0.723127
vt 0.995122 0.723127
vt 0.995122 0.7752443
vt 0.9170732 0.7752443

# Normal
vn 0 0 -1

# Mesh description
g Mapa-Boss-Acto-1_mesh_0001

# Faces
f 1/1/1 2/2/1 3/3/1 4/4/1
f 5/1/1 6/2/1 7/3/1 8/4/1
f 9/1/1 10/2/1 11/3/1 12/4/1
f 13/1/1 14/2/1 15/3/1 16/4/1
f 17/1/1 18/2/1 19/3/1 20/4/1
f 21/1/1 22/2/1 23/3/1 24/4/1
f 25/1/1 26/2/1 27/3/1 28/4/1
f 29/1/1 30/2/1 31/3/1 32/4/1
f 33/1/1 34/2/1 35/3/1 36/4/1
f 37/5/1 38/6/1 39/7/1 40/8/1
f 41/9/1 42/10/1 43/11/1 44/12/1
f 45/1/1 46/2/1 47/3/1 48/4/1
f 49/1/1 50/2/1 51/3/1 52/4/1
f 53/1/1 54/2/1 55/3/1 56/4/1
f 57/1/1 58/2/1 59/3/1 60/4/1
f 61/1/1 62/2/1 63/3/1 64/4/1
f 65/1/1 66/2/1 67/3/1 68/4/1
f 69/1/1 70/2/1 71/3/1 72/4/1
f 73/1/1 74/2/1 75/3/1 76/4/1
f 77/1/1 78/2/1 79/3/1 80/4/1
f 81/1/1 82/2/1 83/3/1 84/4/1
f 85/1/1 86/2/1 87/3/1 88/4/1
f 89/1/1 90/2/1 91/3/1 92/4/1
f 93/1/1 94/2/1 95/3/1 96/4/1
f 97/1/1 98/2/1 99/3/1 100/4/1
f 101/1/1 102/2/1 103/3/1 104/4/1
f 105/1/1 106/2/1 107/3/1 108/4/1
f 109/1/1 110/2/1 111/3/1 112/4/1
f 113/1/1 114/2/1 115/3/1 116/4/1
f 117/1/1 118/2/1 119/3/1 120/4/1
f 121/1/1 122/2/1 123/3/1 124/4/1
f 125/1/1 126/2/1 127/3/1 128/4/1
f 129/1/1 130/2/1 131/3/1 132/4/1
f 133/1/1 134/2/1 135/3/1 136/4/1
f 137/1/1 138/2/1 139/3/1 140/4/1
f 141/1/1 142/2/1 143/3/1 144/4/1
f 145/1/1 146/2/1 147/3/1 148/4/1
f 149/1/1 150/2/1 151/3/1 152/4/1
f 153/1/1 154/2/1 155/3/1 156/4/1
f 157/1/1 158/2/1 159/3/1 160/4/1
f 161/1/1 162/2/1 163/3/1 164/4/1
f 165/13/1 166/14/1 167/15/1 168/16/1
f 169/1/1 170/2/1 171/3/1 172/4/1
f 173/1/1 174/2/1 175/3/1 176/4/1
f 177/1/1 178/2/1 179/3/1 180/4/1
f 181/13/1 182/14/1 183/15/1 184/16/1
f 185/17/1 186/18/1 187/19/1 188/20/1
f 189/17/1 190/18/1 191/19/1 192/20/1
f 193/17/1 194/18/1 195/19/1 196/20/1
f 197/17/1 198/18/1 199/19/1 200/20/1
f 201/17/1 202/18/1 203/19/1 204/20/1
f 205/17/1 206/18/1 207/19/1 208/20/1
f 209/1/1 210/2/1 211/3/1 212/4/1
f 213/1/1 214/2/1 215/3/1 216/4/1
f 217/1/1 218/2/1 219/3/1 220/4/1
f 221/17/1 222/18/1 223/19/1 224/20/1
f 225/17/1 226/18/1 227/19/1 228/20/1
f 229/17/1 230/18/1 231/19/1 232/20/1
f 233/17/1 234/18/1 235/19/1 236/20/1
f 237/17/1 238/18/1 239/19/1 240/20/1
f 241/17/1 242/18/1 243/19/1 244/20/1
f 245/17/1 246/18/1 247/19/1 248/20/1
f 249/17/1 250/18/1 251/19/1 252/20/1
f 253/17/1 254/18/1 255/19/1 256/20/1
f 257/17/1 258/18/1 259/19/1 260/20/1
f 261/17/1 262/18/1 263/19/1 264/20/1
f 265/1/1 266/2/1 267/3/1 268/4/1
f 269/1/1 270/2/1 271/3/1 272/4/1
f 273/1/1 274/2/1 275/3/1 276/4/1
f 277/1/1 278/2/1 279/3/1 280/4/1
f 281/1/1 282/2/1 283/3/1 284/4/1
f 285/1/1 286/2/1 287/3/1 288/4/1
f 289/1/1 290/2/1 291/3/1 292/4/1
f 293/1/1 294/2/1 295/3/1 296/4/1
f 297/1/1 298/2/1 299/3/1 300/4/1
f 301/1/1 302/2/1 303/3/1 304/4/1
f 305/1/1 306/2/1 307/3/1 308/4/1
f 309/1/1 310/2/1 311/3/1 312/4/1
f 313/1/1 314/2/1 315/3/1 316/4/1
f 317/1/1 318/2/1 319/3/1 320/4/1
f 321/1/1 322/2/1 323/3/1 324/4/1
f 325/1/1 326/2/1 327/3/1 328/4/1
f 329/1/1 330/2/1 331/3/1 332/4/1
f 333/1/1 334/2/1 335/3/1 336/4/1

