# Tiled2Unity generated file. Do not modify by hand.
# Wavefront file for 'Mapa-Boss-Acto-1_mesh_0001.obj'

# Vertices (Count = 708)
v -17 -1 0
v -18 -1 0
v -18 0 0
v -17 0 0
v -18 -1 0
v -19 -1 0
v -19 0 0
v -18 0 0
v -19 -1 0
v -20 -1 0
v -20 0 0
v -19 0 0
v -17 -2 0
v -18 -2 0
v -18 -1 0
v -17 -1 0
v -18 -2 0
v -19 -2 0
v -19 -1 0
v -18 -1 0
v -19 -2 0
v -20 -2 0
v -20 -1 0
v -19 -1 0
v -17 -3 0
v -18 -3 0
v -18 -2 0
v -17 -2 0
v -18 -3 0
v -19 -3 0
v -19 -2 0
v -18 -2 0
v -19 -3 0
v -20 -3 0
v -20 -2 0
v -19 -2 0
v -17 -4 0
v -18 -4 0
v -18 -3 0
v -17 -3 0
v -18 -4 0
v -19 -4 0
v -19 -3 0
v -18 -3 0
v -19 -4 0
v -20 -4 0
v -20 -3 0
v -19 -3 0
v -17 -5 0
v -18 -5 0
v -18 -4 0
v -17 -4 0
v -18 -5 0
v -19 -5 0
v -19 -4 0
v -18 -4 0
v -19 -5 0
v -20 -5 0
v -20 -4 0
v -19 -4 0
v -17 -6 0
v -18 -6 0
v -18 -5 0
v -17 -5 0
v -18 -6 0
v -19 -6 0
v -19 -5 0
v -18 -5 0
v -19 -6 0
v -20 -6 0
v -20 -5 0
v -19 -5 0
v -17 -7 0
v -18 -7 0
v -18 -6 0
v -17 -6 0
v -18 -7 0
v -19 -7 0
v -19 -6 0
v -18 -6 0
v -19 -7 0
v -20 -7 0
v -20 -6 0
v -19 -6 0
v -17 -8 0
v -18 -8 0
v -18 -7 0
v -17 -7 0
v -18 -8 0
v -19 -8 0
v -19 -7 0
v -18 -7 0
v -19 -8 0
v -20 -8 0
v -20 -7 0
v -19 -7 0
v -17 -9 0
v -18 -9 0
v -18 -8 0
v -17 -8 0
v -18 -9 0
v -19 -9 0
v -19 -8 0
v -18 -8 0
v -19 -9 0
v -20 -9 0
v -20 -8 0
v -19 -8 0
v -4 -10 0
v -5 -10 0
v -5 -9 0
v -4 -9 0
v -5 -10 0
v -6 -10 0
v -6 -9 0
v -5 -9 0
v -17 -10 0
v -18 -10 0
v -18 -9 0
v -17 -9 0
v -18 -10 0
v -19 -10 0
v -19 -9 0
v -18 -9 0
v -19 -10 0
v -20 -10 0
v -20 -9 0
v -19 -9 0
v -17 -11 0
v -18 -11 0
v -18 -10 0
v -17 -10 0
v -18 -11 0
v -19 -11 0
v -19 -10 0
v -18 -10 0
v -19 -11 0
v -20 -11 0
v -20 -10 0
v -19 -10 0
v -17 -13 0
v -18 -13 0
v -18 -12 0
v -17 -12 0
v -18 -13 0
v -19 -13 0
v -19 -12 0
v -18 -12 0
v -19 -13 0
v -20 -13 0
v -20 -12 0
v -19 -12 0
v -17 -14 0
v -18 -14 0
v -18 -13 0
v -17 -13 0
v -18 -14 0
v -19 -14 0
v -19 -13 0
v -18 -13 0
v -19 -14 0
v -20 -14 0
v -20 -13 0
v -19 -13 0
v -17 -15 0
v -18 -15 0
v -18 -14 0
v -17 -14 0
v -18 -15 0
v -19 -15 0
v -19 -14 0
v -18 -14 0
v -19 -15 0
v -20 -15 0
v -20 -14 0
v -19 -14 0
v -17 -16 0
v -18 -16 0
v -18 -15 0
v -17 -15 0
v -18 -16 0
v -19 -16 0
v -19 -15 0
v -18 -15 0
v -19 -16 0
v -20 -16 0
v -20 -15 0
v -19 -15 0
v -17 -17 0
v -18 -17 0
v -18 -16 0
v -17 -16 0
v -18 -17 0
v -19 -17 0
v -19 -16 0
v -18 -16 0
v -19 -17 0
v -20 -17 0
v -20 -16 0
v -19 -16 0
v -17 -19 0
v -18 -19 0
v -18 -18 0
v -17 -18 0
v -18 -19 0
v -19 -19 0
v -19 -18 0
v -18 -18 0
v -19 -19 0
v -20 -19 0
v -20 -18 0
v -19 -18 0
v -17 -20 0
v -18 -20 0
v -18 -19 0
v -17 -19 0
v -18 -20 0
v -19 -20 0
v -19 -19 0
v -18 -19 0
v -19 -20 0
v -20 -20 0
v -20 -19 0
v -19 -19 0
v -17 -21 0
v -18 -21 0
v -18 -20 0
v -17 -20 0
v -18 -21 0
v -19 -21 0
v -19 -20 0
v -18 -20 0
v -19 -21 0
v -20 -21 0
v -20 -20 0
v -19 -20 0
v -17 -22 0
v -18 -22 0
v -18 -21 0
v -17 -21 0
v -18 -22 0
v -19 -22 0
v -19 -21 0
v -18 -21 0
v -19 -22 0
v -20 -22 0
v -20 -21 0
v -19 -21 0
v -17 -23 0
v -18 -23 0
v -18 -22 0
v -17 -22 0
v -18 -23 0
v -19 -23 0
v -19 -22 0
v -18 -22 0
v -19 -23 0
v -20 -23 0
v -20 -22 0
v -19 -22 0
v -17 -24 0
v -18 -24 0
v -18 -23 0
v -17 -23 0
v -18 -24 0
v -19 -24 0
v -19 -23 0
v -18 -23 0
v -19 -24 0
v -20 -24 0
v -20 -23 0
v -19 -23 0
v -39 -24 0
v -40 -24 0
v -40 -23 0
v -39 -23 0
v -17 -25 0
v -18 -25 0
v -18 -24 0
v -17 -24 0
v -18 -25 0
v -19 -25 0
v -19 -24 0
v -18 -24 0
v -19 -25 0
v -20 -25 0
v -20 -24 0
v -19 -24 0
v -38 -25 0
v -39 -25 0
v -39 -24 0
v -38 -24 0
v -39 -25 0
v -40 -25 0
v -40 -24 0
v -39 -24 0
v -17 -26 0
v -18 -26 0
v -18 -25 0
v -17 -25 0
v -18 -26 0
v -19 -26 0
v -19 -25 0
v -18 -25 0
v -19 -26 0
v -20 -26 0
v -20 -25 0
v -19 -25 0
v -37 -26 0
v -38 -26 0
v -38 -25 0
v -37 -25 0
v -2 -27 0
v -3 -27 0
v -3 -26 0
v -2 -26 0
v -3 -27 0
v -4 -27 0
v -4 -26 0
v -3 -26 0
v -4 -27 0
v -5 -27 0
v -5 -26 0
v -4 -26 0
v -5 -27 0
v -6 -27 0
v -6 -26 0
v -5 -26 0
v -6 -27 0
v -7 -27 0
v -7 -26 0
v -6 -26 0
v -7 -27 0
v -8 -27 0
v -8 -26 0
v -7 -26 0
v -8 -27 0
v -9 -27 0
v -9 -26 0
v -8 -26 0
v -9 -27 0
v -10 -27 0
v -10 -26 0
v -9 -26 0
v -10 -27 0
v -11 -27 0
v -11 -26 0
v -10 -26 0
v -11 -27 0
v -12 -27 0
v -12 -26 0
v -11 -26 0
v -12 -27 0
v -13 -27 0
v -13 -26 0
v -12 -26 0
v -13 -27 0
v -14 -27 0
v -14 -26 0
v -13 -26 0
v -14 -27 0
v -15 -27 0
v -15 -26 0
v -14 -26 0
v -15 -27 0
v -16 -27 0
v -16 -26 0
v -15 -26 0
v -16 -27 0
v -17 -27 0
v -17 -26 0
v -16 -26 0
v -17 -27 0
v -18 -27 0
v -18 -26 0
v -17 -26 0
v -18 -27 0
v -19 -27 0
v -19 -26 0
v -18 -26 0
v -19 -27 0
v -20 -27 0
v -20 -26 0
v -19 -26 0
v -20 -27 0
v -21 -27 0
v -21 -26 0
v -20 -26 0
v -21 -27 0
v -22 -27 0
v -22 -26 0
v -21 -26 0
v -22 -27 0
v -23 -27 0
v -23 -26 0
v -22 -26 0
v -23 -27 0
v -24 -27 0
v -24 -26 0
v -23 -26 0
v -24 -27 0
v -25 -27 0
v -25 -26 0
v -24 -26 0
v -25 -27 0
v -26 -27 0
v -26 -26 0
v -25 -26 0
v -26 -27 0
v -27 -27 0
v -27 -26 0
v -26 -26 0
v -27 -27 0
v -28 -27 0
v -28 -26 0
v -27 -26 0
v -28 -27 0
v -29 -27 0
v -29 -26 0
v -28 -26 0
v -29 -27 0
v -30 -27 0
v -30 -26 0
v -29 -26 0
v -30 -27 0
v -31 -27 0
v -31 -26 0
v -30 -26 0
v -31 -27 0
v -32 -27 0
v -32 -26 0
v -31 -26 0
v -32 -27 0
v -33 -27 0
v -33 -26 0
v -32 -26 0
v -33 -27 0
v -34 -27 0
v -34 -26 0
v -33 -26 0
v -34 -27 0
v -35 -27 0
v -35 -26 0
v -34 -26 0
v -2 -28 0
v -3 -28 0
v -3 -27 0
v -2 -27 0
v -3 -28 0
v -4 -28 0
v -4 -27 0
v -3 -27 0
v -4 -28 0
v -5 -28 0
v -5 -27 0
v -4 -27 0
v -5 -28 0
v -6 -28 0
v -6 -27 0
v -5 -27 0
v -6 -28 0
v -7 -28 0
v -7 -27 0
v -6 -27 0
v -7 -28 0
v -8 -28 0
v -8 -27 0
v -7 -27 0
v -8 -28 0
v -9 -28 0
v -9 -27 0
v -8 -27 0
v -9 -28 0
v -10 -28 0
v -10 -27 0
v -9 -27 0
v -10 -28 0
v -11 -28 0
v -11 -27 0
v -10 -27 0
v -11 -28 0
v -12 -28 0
v -12 -27 0
v -11 -27 0
v -12 -28 0
v -13 -28 0
v -13 -27 0
v -12 -27 0
v -13 -28 0
v -14 -28 0
v -14 -27 0
v -13 -27 0
v -14 -28 0
v -15 -28 0
v -15 -27 0
v -14 -27 0
v -15 -28 0
v -16 -28 0
v -16 -27 0
v -15 -27 0
v -16 -28 0
v -17 -28 0
v -17 -27 0
v -16 -27 0
v -17 -28 0
v -18 -28 0
v -18 -27 0
v -17 -27 0
v -18 -28 0
v -19 -28 0
v -19 -27 0
v -18 -27 0
v -19 -28 0
v -20 -28 0
v -20 -27 0
v -19 -27 0
v -20 -28 0
v -21 -28 0
v -21 -27 0
v -20 -27 0
v -21 -28 0
v -22 -28 0
v -22 -27 0
v -21 -27 0
v -22 -28 0
v -23 -28 0
v -23 -27 0
v -22 -27 0
v -23 -28 0
v -24 -28 0
v -24 -27 0
v -23 -27 0
v -24 -28 0
v -25 -28 0
v -25 -27 0
v -24 -27 0
v -25 -28 0
v -26 -28 0
v -26 -27 0
v -25 -27 0
v -26 -28 0
v -27 -28 0
v -27 -27 0
v -26 -27 0
v -27 -28 0
v -28 -28 0
v -28 -27 0
v -27 -27 0
v -28 -28 0
v -29 -28 0
v -29 -27 0
v -28 -27 0
v -29 -28 0
v -30 -28 0
v -30 -27 0
v -29 -27 0
v -30 -28 0
v -31 -28 0
v -31 -27 0
v -30 -27 0
v -31 -28 0
v -32 -28 0
v -32 -27 0
v -31 -27 0
v -32 -28 0
v -33 -28 0
v -33 -27 0
v -32 -27 0
v -33 -28 0
v -34 -28 0
v -34 -27 0
v -33 -27 0
v -34 -28 0
v -35 -28 0
v -35 -27 0
v -34 -27 0
v -2 -29 0
v -3 -29 0
v -3 -28 0
v -2 -28 0
v -3 -29 0
v -4 -29 0
v -4 -28 0
v -3 -28 0
v -4 -29 0
v -5 -29 0
v -5 -28 0
v -4 -28 0
v -5 -29 0
v -6 -29 0
v -6 -28 0
v -5 -28 0
v -6 -29 0
v -7 -29 0
v -7 -28 0
v -6 -28 0
v -7 -29 0
v -8 -29 0
v -8 -28 0
v -7 -28 0
v -8 -29 0
v -9 -29 0
v -9 -28 0
v -8 -28 0
v -9 -29 0
v -10 -29 0
v -10 -28 0
v -9 -28 0
v -10 -29 0
v -11 -29 0
v -11 -28 0
v -10 -28 0
v -11 -29 0
v -12 -29 0
v -12 -28 0
v -11 -28 0
v -12 -29 0
v -13 -29 0
v -13 -28 0
v -12 -28 0
v -13 -29 0
v -14 -29 0
v -14 -28 0
v -13 -28 0
v -14 -29 0
v -15 -29 0
v -15 -28 0
v -14 -28 0
v -15 -29 0
v -16 -29 0
v -16 -28 0
v -15 -28 0
v -16 -29 0
v -17 -29 0
v -17 -28 0
v -16 -28 0
v -17 -29 0
v -18 -29 0
v -18 -28 0
v -17 -28 0
v -18 -29 0
v -19 -29 0
v -19 -28 0
v -18 -28 0
v -19 -29 0
v -20 -29 0
v -20 -28 0
v -19 -28 0
v -20 -29 0
v -21 -29 0
v -21 -28 0
v -20 -28 0
v -21 -29 0
v -22 -29 0
v -22 -28 0
v -21 -28 0
v -22 -29 0
v -23 -29 0
v -23 -28 0
v -22 -28 0
v -23 -29 0
v -24 -29 0
v -24 -28 0
v -23 -28 0
v -24 -29 0
v -25 -29 0
v -25 -28 0
v -24 -28 0
v -25 -29 0
v -26 -29 0
v -26 -28 0
v -25 -28 0
v -26 -29 0
v -27 -29 0
v -27 -28 0
v -26 -28 0
v -27 -29 0
v -28 -29 0
v -28 -28 0
v -27 -28 0
v -28 -29 0
v -29 -29 0
v -29 -28 0
v -28 -28 0
v -29 -29 0
v -30 -29 0
v -30 -28 0
v -29 -28 0
v -30 -29 0
v -31 -29 0
v -31 -28 0
v -30 -28 0
v -31 -29 0
v -32 -29 0
v -32 -28 0
v -31 -28 0
v -32 -29 0
v -33 -29 0
v -33 -28 0
v -32 -28 0
v -33 -29 0
v -34 -29 0
v -34 -28 0
v -33 -28 0
v -34 -29 0
v -35 -29 0
v -35 -28 0
v -34 -28 0

# Texture cooridinates (Count = 20)
vt 0.8341463 0.723127
vt 0.9121951 0.723127
vt 0.9121951 0.7752443
vt 0.8341463 0.7752443
vt 0.8341463 0.6123779
vt 0.9121951 0.6123779
vt 0.9121951 0.6644951
vt 0.8341463 0.6644951
vt 0.9170732 0.6123779
vt 0.995122 0.6123779
vt 0.995122 0.6644951
vt 0.9170732 0.6644951
vt 0.8341463 0.6677524
vt 0.9121951 0.6677524
vt 0.9121951 0.7198697
vt 0.8341463 0.7198697
vt 0.9170732 0.723127
vt 0.995122 0.723127
vt 0.995122 0.7752443
vt 0.9170732 0.7752443

# Normal
vn 0 0 -1

# Mesh description
g Mapa-Boss-Acto-1_mesh_0001

# Faces
f 1/1/1 2/2/1 3/3/1 4/4/1
f 5/1/1 6/2/1 7/3/1 8/4/1
f 9/1/1 10/2/1 11/3/1 12/4/1
f 13/1/1 14/2/1 15/3/1 16/4/1
f 17/1/1 18/2/1 19/3/1 20/4/1
f 21/1/1 22/2/1 23/3/1 24/4/1
f 25/1/1 26/2/1 27/3/1 28/4/1
f 29/1/1 30/2/1 31/3/1 32/4/1
f 33/1/1 34/2/1 35/3/1 36/4/1
f 37/1/1 38/2/1 39/3/1 40/4/1
f 41/1/1 42/2/1 43/3/1 44/4/1
f 45/1/1 46/2/1 47/3/1 48/4/1
f 49/1/1 50/2/1 51/3/1 52/4/1
f 53/1/1 54/2/1 55/3/1 56/4/1
f 57/1/1 58/2/1 59/3/1 60/4/1
f 61/1/1 62/2/1 63/3/1 64/4/1
f 65/1/1 66/2/1 67/3/1 68/4/1
f 69/1/1 70/2/1 71/3/1 72/4/1
f 73/1/1 74/2/1 75/3/1 76/4/1
f 77/1/1 78/2/1 79/3/1 80/4/1
f 81/1/1 82/2/1 83/3/1 84/4/1
f 85/1/1 86/2/1 87/3/1 88/4/1
f 89/1/1 90/2/1 91/3/1 92/4/1
f 93/1/1 94/2/1 95/3/1 96/4/1
f 97/1/1 98/2/1 99/3/1 100/4/1
f 101/1/1 102/2/1 103/3/1 104/4/1
f 105/1/1 106/2/1 107/3/1 108/4/1
f 109/5/1 110/6/1 111/7/1 112/8/1
f 113/9/1 114/10/1 115/11/1 116/12/1
f 117/1/1 118/2/1 119/3/1 120/4/1
f 121/1/1 122/2/1 123/3/1 124/4/1
f 125/1/1 126/2/1 127/3/1 128/4/1
f 129/1/1 130/2/1 131/3/1 132/4/1
f 133/1/1 134/2/1 135/3/1 136/4/1
f 137/1/1 138/2/1 139/3/1 140/4/1
f 141/1/1 142/2/1 143/3/1 144/4/1
f 145/1/1 146/2/1 147/3/1 148/4/1
f 149/1/1 150/2/1 151/3/1 152/4/1
f 153/1/1 154/2/1 155/3/1 156/4/1
f 157/1/1 158/2/1 159/3/1 160/4/1
f 161/1/1 162/2/1 163/3/1 164/4/1
f 165/1/1 166/2/1 167/3/1 168/4/1
f 169/1/1 170/2/1 171/3/1 172/4/1
f 173/1/1 174/2/1 175/3/1 176/4/1
f 177/1/1 178/2/1 179/3/1 180/4/1
f 181/1/1 182/2/1 183/3/1 184/4/1
f 185/1/1 186/2/1 187/3/1 188/4/1
f 189/1/1 190/2/1 191/3/1 192/4/1
f 193/1/1 194/2/1 195/3/1 196/4/1
f 197/1/1 198/2/1 199/3/1 200/4/1
f 201/1/1 202/2/1 203/3/1 204/4/1
f 205/1/1 206/2/1 207/3/1 208/4/1
f 209/1/1 210/2/1 211/3/1 212/4/1
f 213/1/1 214/2/1 215/3/1 216/4/1
f 217/1/1 218/2/1 219/3/1 220/4/1
f 221/1/1 222/2/1 223/3/1 224/4/1
f 225/1/1 226/2/1 227/3/1 228/4/1
f 229/1/1 230/2/1 231/3/1 232/4/1
f 233/1/1 234/2/1 235/3/1 236/4/1
f 237/1/1 238/2/1 239/3/1 240/4/1
f 241/1/1 242/2/1 243/3/1 244/4/1
f 245/1/1 246/2/1 247/3/1 248/4/1
f 249/1/1 250/2/1 251/3/1 252/4/1
f 253/1/1 254/2/1 255/3/1 256/4/1
f 257/1/1 258/2/1 259/3/1 260/4/1
f 261/1/1 262/2/1 263/3/1 264/4/1
f 265/1/1 266/2/1 267/3/1 268/4/1
f 269/1/1 270/2/1 271/3/1 272/4/1
f 273/13/1 274/14/1 275/15/1 276/16/1
f 277/1/1 278/2/1 279/3/1 280/4/1
f 281/1/1 282/2/1 283/3/1 284/4/1
f 285/1/1 286/2/1 287/3/1 288/4/1
f 289/13/1 290/14/1 291/15/1 292/16/1
f 293/1/1 294/2/1 295/3/1 296/4/1
f 297/1/1 298/2/1 299/3/1 300/4/1
f 301/1/1 302/2/1 303/3/1 304/4/1
f 305/1/1 306/2/1 307/3/1 308/4/1
f 309/13/1 310/14/1 311/15/1 312/16/1
f 313/17/1 314/18/1 315/19/1 316/20/1
f 317/17/1 318/18/1 319/19/1 320/20/1
f 321/17/1 322/18/1 323/19/1 324/20/1
f 325/17/1 326/18/1 327/19/1 328/20/1
f 329/17/1 330/18/1 331/19/1 332/20/1
f 333/17/1 334/18/1 335/19/1 336/20/1
f 337/17/1 338/18/1 339/19/1 340/20/1
f 341/17/1 342/18/1 343/19/1 344/20/1
f 345/17/1 346/18/1 347/19/1 348/20/1
f 349/17/1 350/18/1 351/19/1 352/20/1
f 353/17/1 354/18/1 355/19/1 356/20/1
f 357/17/1 358/18/1 359/19/1 360/20/1
f 361/17/1 362/18/1 363/19/1 364/20/1
f 365/17/1 366/18/1 367/19/1 368/20/1
f 369/17/1 370/18/1 371/19/1 372/20/1
f 373/1/1 374/2/1 375/3/1 376/4/1
f 377/1/1 378/2/1 379/3/1 380/4/1
f 381/1/1 382/2/1 383/3/1 384/4/1
f 385/17/1 386/18/1 387/19/1 388/20/1
f 389/17/1 390/18/1 391/19/1 392/20/1
f 393/17/1 394/18/1 395/19/1 396/20/1
f 397/17/1 398/18/1 399/19/1 400/20/1
f 401/17/1 402/18/1 403/19/1 404/20/1
f 405/17/1 406/18/1 407/19/1 408/20/1
f 409/17/1 410/18/1 411/19/1 412/20/1
f 413/17/1 414/18/1 415/19/1 416/20/1
f 417/17/1 418/18/1 419/19/1 420/20/1
f 421/17/1 422/18/1 423/19/1 424/20/1
f 425/17/1 426/18/1 427/19/1 428/20/1
f 429/17/1 430/18/1 431/19/1 432/20/1
f 433/17/1 434/18/1 435/19/1 436/20/1
f 437/17/1 438/18/1 439/19/1 440/20/1
f 441/17/1 442/18/1 443/19/1 444/20/1
f 445/1/1 446/2/1 447/3/1 448/4/1
f 449/1/1 450/2/1 451/3/1 452/4/1
f 453/1/1 454/2/1 455/3/1 456/4/1
f 457/1/1 458/2/1 459/3/1 460/4/1
f 461/1/1 462/2/1 463/3/1 464/4/1
f 465/1/1 466/2/1 467/3/1 468/4/1
f 469/1/1 470/2/1 471/3/1 472/4/1
f 473/1/1 474/2/1 475/3/1 476/4/1
f 477/1/1 478/2/1 479/3/1 480/4/1
f 481/1/1 482/2/1 483/3/1 484/4/1
f 485/1/1 486/2/1 487/3/1 488/4/1
f 489/1/1 490/2/1 491/3/1 492/4/1
f 493/1/1 494/2/1 495/3/1 496/4/1
f 497/1/1 498/2/1 499/3/1 500/4/1
f 501/1/1 502/2/1 503/3/1 504/4/1
f 505/1/1 506/2/1 507/3/1 508/4/1
f 509/1/1 510/2/1 511/3/1 512/4/1
f 513/1/1 514/2/1 515/3/1 516/4/1
f 517/1/1 518/2/1 519/3/1 520/4/1
f 521/1/1 522/2/1 523/3/1 524/4/1
f 525/1/1 526/2/1 527/3/1 528/4/1
f 529/1/1 530/2/1 531/3/1 532/4/1
f 533/1/1 534/2/1 535/3/1 536/4/1
f 537/1/1 538/2/1 539/3/1 540/4/1
f 541/1/1 542/2/1 543/3/1 544/4/1
f 545/1/1 546/2/1 547/3/1 548/4/1
f 549/1/1 550/2/1 551/3/1 552/4/1
f 553/1/1 554/2/1 555/3/1 556/4/1
f 557/1/1 558/2/1 559/3/1 560/4/1
f 561/1/1 562/2/1 563/3/1 564/4/1
f 565/1/1 566/2/1 567/3/1 568/4/1
f 569/1/1 570/2/1 571/3/1 572/4/1
f 573/1/1 574/2/1 575/3/1 576/4/1
f 577/1/1 578/2/1 579/3/1 580/4/1
f 581/1/1 582/2/1 583/3/1 584/4/1
f 585/1/1 586/2/1 587/3/1 588/4/1
f 589/1/1 590/2/1 591/3/1 592/4/1
f 593/1/1 594/2/1 595/3/1 596/4/1
f 597/1/1 598/2/1 599/3/1 600/4/1
f 601/1/1 602/2/1 603/3/1 604/4/1
f 605/1/1 606/2/1 607/3/1 608/4/1
f 609/1/1 610/2/1 611/3/1 612/4/1
f 613/1/1 614/2/1 615/3/1 616/4/1
f 617/1/1 618/2/1 619/3/1 620/4/1
f 621/1/1 622/2/1 623/3/1 624/4/1
f 625/1/1 626/2/1 627/3/1 628/4/1
f 629/1/1 630/2/1 631/3/1 632/4/1
f 633/1/1 634/2/1 635/3/1 636/4/1
f 637/1/1 638/2/1 639/3/1 640/4/1
f 641/1/1 642/2/1 643/3/1 644/4/1
f 645/1/1 646/2/1 647/3/1 648/4/1
f 649/1/1 650/2/1 651/3/1 652/4/1
f 653/1/1 654/2/1 655/3/1 656/4/1
f 657/1/1 658/2/1 659/3/1 660/4/1
f 661/1/1 662/2/1 663/3/1 664/4/1
f 665/1/1 666/2/1 667/3/1 668/4/1
f 669/1/1 670/2/1 671/3/1 672/4/1
f 673/1/1 674/2/1 675/3/1 676/4/1
f 677/1/1 678/2/1 679/3/1 680/4/1
f 681/1/1 682/2/1 683/3/1 684/4/1
f 685/1/1 686/2/1 687/3/1 688/4/1
f 689/1/1 690/2/1 691/3/1 692/4/1
f 693/1/1 694/2/1 695/3/1 696/4/1
f 697/1/1 698/2/1 699/3/1 700/4/1
f 701/1/1 702/2/1 703/3/1 704/4/1
f 705/1/1 706/2/1 707/3/1 708/4/1

